<svg width="17" height="17" viewBox="0 0 17 17" fill="none" xmlns="http://www.w3.org/2000/svg">
<path fill-rule="evenodd" clip-rule="evenodd" d="M8.5 0.5C4.08919 0.5 0.5 4.08919 0.5 8.5C0.5 12.9108 4.08919 16.5 8.5 16.5C12.9108 16.5 16.5 12.9108 16.5 8.5C16.5 4.08919 12.9108 0.5 8.5 0.5ZM6.81351 11.4059C6.9346 11.527 7.09892 11.5962 7.27189 11.5962C7.44487 11.5962 7.60919 11.527 7.73027 11.4059L12.6341 6.50216C12.8849 6.25135 12.8849 5.83622 12.6341 5.58541C12.3832 5.33459 11.9681 5.33459 11.7173 5.58541L7.27189 10.0308L5.2827 8.04162C5.03189 7.79081 4.61676 7.79081 4.36595 8.04162C4.11513 8.29243 4.11513 8.70757 4.36595 8.95838L6.81351 11.4059Z" fill="#B4FF00"/>
</svg>
